<svg width="27" height="28" viewBox="0 0 27 28" fill="none" xmlns="http://www.w3.org/2000/svg">
<path d="M6.61164 16.4806L6.61164 10.8945C6.61476 9.28076 7.2572 7.73401 8.39828 6.59293C9.53936 5.45185 11.0861 4.80942 12.6998 4.8063V4.8063C14.3119 4.80865 15.8573 5.45009 16.9972 6.59001C18.1372 7.72993 18.7786 9.27532 18.7809 10.8874V19.9808C18.7889 20.516 18.6893 21.0474 18.4881 21.5434C18.287 22.0394 17.9883 22.49 17.6098 22.8685C17.2313 23.2469 16.7807 23.5456 16.2847 23.7468C15.7887 23.948 15.2574 24.0475 14.7222 24.0396C13.6482 24.0374 12.6189 23.6098 11.8596 22.8505C11.1002 22.0911 10.6726 21.0618 10.6704 19.9879L10.6704 10.4561C10.6665 10.1885 10.7163 9.92281 10.8168 9.6748C10.9174 9.42679 11.0668 9.20149 11.256 9.01225C11.4452 8.82301 11.6705 8.67367 11.9185 8.57309C12.1666 8.4725 12.4322 8.42272 12.6998 8.42668C12.9674 8.42272 13.2331 8.4725 13.4811 8.57309C13.7291 8.67367 13.9544 8.82301 14.1437 9.01225C14.3329 9.20149 14.4822 9.42679 14.5828 9.6748C14.6834 9.92281 14.7332 10.1885 14.7292 10.4561L14.6939 20.3909" stroke="currentColor" stroke-width="2" stroke-linecap="round" stroke-linejoin="round"/>
</svg>
