<svg width="21" height="43" viewBox="0 0 21 43" fill="none" xmlns="http://www.w3.org/2000/svg">
<path d="M0.4375 31.1055C0.4375 30.4805 0.619792 29.9596 0.984375 29.543C1.36198 29.1263 1.92188 28.918 2.66406 28.918C3.40625 28.918 3.96615 29.1263 4.34375 29.543C4.73438 29.9596 4.92969 30.4805 4.92969 31.1055C4.92969 31.7044 4.73438 32.2057 4.34375 32.6094C3.96615 33.013 3.40625 33.2148 2.66406 33.2148C1.92188 33.2148 1.36198 33.013 0.984375 32.6094C0.619792 32.2057 0.4375 31.7044 0.4375 31.1055ZM0.457031 13.8594C0.457031 13.2344 0.639323 12.7135 1.00391 12.2969C1.38151 11.8802 1.94141 11.6719 2.68359 11.6719C3.42578 11.6719 3.98568 11.8802 4.36328 12.2969C4.75391 12.7135 4.94922 13.2344 4.94922 13.8594C4.94922 14.4583 4.75391 14.9596 4.36328 15.3633C3.98568 15.7669 3.42578 15.9688 2.68359 15.9688C1.94141 15.9688 1.38151 15.7669 1.00391 15.3633C0.639323 14.9596 0.457031 14.4583 0.457031 13.8594ZM10.1055 21.457C10.1055 18.5143 10.4961 15.6888 11.2773 12.9805C12.0716 10.2721 13.25 7.8112 14.8125 5.59766C16.375 3.38411 17.9961 1.82161 19.6758 0.910156L20.418 3.29297C18.5169 4.7513 16.9544 6.97786 15.7305 9.97266C14.5195 12.9674 13.8555 16.3203 13.7383 20.0312L13.7188 21.6914C13.7188 26.7174 14.6367 31.0794 16.4727 34.7773C17.5794 36.9909 18.8945 38.7227 20.418 39.9727L19.6758 42.1797C17.944 41.2161 16.2904 39.6016 14.7148 37.3359C11.6419 32.9089 10.1055 27.6159 10.1055 21.457Z" fill="currentColor"/>
</svg>
