<svg width="22" height="26" viewBox="0 0 22 26" fill="none" xmlns="http://www.w3.org/2000/svg">
<path d="M14.0883 0H3.74121C2.06116 0 0.694336 1.36683 0.694336 3.04688V22.9531C0.694336 24.6332 2.06116 26 3.74121 26H18.259C19.9391 26 21.3059 24.6332 21.3059 22.9531V7.25441L14.0883 0ZM14.6534 3.44805L17.8471 6.65798H15.6691C15.109 6.65798 14.6534 6.20237 14.6534 5.64236V3.44805ZM19.2746 22.9531C19.2746 23.5131 18.819 23.9688 18.259 23.9688H3.74121C3.1812 23.9688 2.72559 23.5131 2.72559 22.9531V3.04688C2.72559 2.48686 3.1812 2.03125 3.74121 2.03125H12.6223V5.64236C12.6223 7.3224 13.9891 8.68923 15.6692 8.68923H19.2746V22.9531Z" fill="currentColor"/>
</svg>
