<svg width="581" height="230" viewBox="0 0 581 230" fill="none" xmlns="http://www.w3.org/2000/svg">
<g clip-path="url(#clip0)">
<path d="M498.244 138.91L587.696 117.323V88.2227L498.244 109.554V138.91Z" fill="url(#paint0_linear)"/>
<path d="M473.795 83.4945L627.682 47.2962V25.6113L473.795 61.8036V83.4945Z" fill="url(#paint1_linear)"/>
<path d="M354.426 160.07L474.82 131.817V85.541L354.426 113.788V160.07Z" fill="url(#paint2_linear)"/>
<path d="M374.721 278.737L652.307 213.231V110.254L374.721 175.766V278.737Z" fill="url(#paint3_linear)"/>
<path d="M306.383 183.292L422.834 156.081V141.238L306.383 168.449V183.292Z" fill="url(#paint4_linear)"/>
<path d="M306.383 168.449V169.778L422.834 142.567V141.238L306.383 168.449Z" fill="white"/>
<path d="M552.178 48.4291L668.629 20.6086V9.98242L552.178 37.8029V48.4291Z" fill="url(#paint5_linear)"/>
<path d="M552.178 37.8029V38.5219L668.629 10.7014V9.98242L552.178 37.8029Z" fill="white"/>
<path d="M44.9746 253.33L285.076 197.225V161.594L44.9746 217.704L44.9746 253.33Z" fill="url(#paint6_linear)"/>
<path d="M562.396 251.855L562.409 256.546L721.572 218.922V214.279L562.396 251.855Z" fill="#F9B400"/>
<path d="M562.396 251.343V253.433L721.572 215.864V213.768L562.396 251.343Z" fill="#FDD948"/>
<path d="M364.223 41.5377V44.6816L400.7 36.3648V33.2695L364.223 41.5377Z" fill="#F9B400"/>
<path d="M364.223 41.026V41.8973L400.7 33.6291V32.7578L364.223 41.026Z" fill="#FDD948"/>
<path d="M6.16797 230.334L133.635 200.71V190.742L6.16797 220.975L6.16797 230.334Z" fill="#F9B400"/>
<path d="M6.16797 220.975V222.133L133.635 191.9V190.742L6.16797 220.975Z" fill="#FDD948"/>
<path d="M381.822 113.88L492.413 87.8026V60.6523L381.822 86.7363V113.88Z" fill="#F9B400"/>
<path d="M381.822 86.7363V87.8879L492.413 61.81V60.6523L381.822 86.7363Z" fill="#FDD948"/>
<path d="M126.805 148.263L304.008 106.295V100.951L126.805 142.92V148.263Z" fill="#F9B400"/>
<path d="M126.805 142.919V144.077L304.008 102.103V100.951L126.805 142.919Z" fill="#FDD948"/>
<path d="M308.006 269.567L484.431 228.263V213.518L308.006 254.822V269.567Z" fill="#F9B400"/>
<path d="M308.006 254.822V257.271L484.431 215.967V213.518L308.006 254.822Z" fill="#FDD948"/>
<path d="M285.076 146.821L364.145 128.28V118.428L285.076 136.969V146.821Z" fill="#F9B400"/>
<path d="M285.076 136.947V138.105L364.145 119.564V118.406L285.076 136.947Z" fill="#FDD948"/>
<path d="M559.713 125.756L626.94 109.914V104.559L559.713 120.4V125.756Z" fill="#F9B400"/>
<path d="M559.713 120.4V121.558L626.94 105.716V104.559L559.713 120.4Z" fill="#FDD948"/>
<path d="M520.359 74.9024L583.698 59.7858V55.4902L520.359 70.6069V74.9024Z" fill="#F9B400"/>
<path d="M520.359 70.6069V71.2284L583.698 56.1117V55.4902L520.359 70.6069Z" fill="#FDD948"/>
<path d="M471.311 158.688L522.946 146.49V124.586L471.311 136.784V158.688Z" fill="#F9B400"/>
<path d="M471.311 136.784V138.015L522.946 125.817V124.586L471.311 136.784Z" fill="#FDD948"/>
<path d="M171.387 256.713L457.8 190.44V147.387L171.387 214.269V256.713Z" fill="#F9B400"/>
<path d="M171.387 214.269V215.847L457.8 148.965V147.387L171.387 214.269Z" fill="#FDD948"/>
<path d="M420.398 267.453L706.812 200.57V141.676L420.398 208.558V267.453Z" fill="#F9B400"/>
<path d="M420.398 208.558V210.136L706.812 143.254V141.676L420.398 208.558Z" fill="#FDD948"/>
<path d="M380.008 136.902L380.02 139.156L644.999 76.3131V74.1074L380.008 136.902Z" fill="#F9B400"/>
<path d="M380.033 136.874V137.599L645.024 74.8051V74.0801L380.033 136.874Z" fill="#FDD948"/>
<path d="M233.934 175.73L325.339 154.532V149.457L233.934 170.654V175.73Z" fill="url(#paint7_linear)"/>
<path d="M233.934 170.655V171.983L325.339 150.785V149.457L233.934 170.655Z" fill="white"/>
<path d="M123.525 238.037L162.186 229.153V220.422L123.525 229.305V238.037Z" fill="url(#paint8_linear)"/>
<path d="M123.525 229.305V231.243L162.186 222.359V220.422L123.525 229.305Z" fill="white"/>
<path d="M509.398 30.8695L557.272 19.4696V14.3027L509.398 25.6966V30.8695Z" fill="url(#paint9_linear)"/>
<path d="M509.398 25.6966V26.4155L557.272 15.0217V14.3027L509.398 25.6966Z" fill="white"/>
<path d="M457.975 98.0878L504.871 87.0717V84.6406L457.975 95.6628V98.0878Z" fill="url(#paint10_linear)"/>
<path d="M457.975 95.6628V96.2478L504.871 85.2316V84.6406L457.975 95.6628Z" fill="white"/>
</g>
<defs>
<linearGradient id="paint0_linear" x1="538.221" y1="97.5752" x2="551.74" y2="142.168" gradientUnits="userSpaceOnUse">
<stop stop-color="#7C7B7B"/>
<stop offset="0.5021" stop-color="#8E8E8E"/>
<stop offset="0.8828" stop-color="#969696"/>
</linearGradient>
<linearGradient id="paint1_linear" x1="556.946" y1="79.2716" x2="545.657" y2="35.2478" gradientUnits="userSpaceOnUse">
<stop stop-color="#7C7B7B"/>
<stop offset="0.2701" stop-color="#8E8E8E"/>
<stop offset="0.475" stop-color="#969696"/>
<stop offset="0.7997" stop-color="#818181"/>
<stop offset="0.8989" stop-color="#7A7979"/>
</linearGradient>
<linearGradient id="paint2_linear" x1="421.158" y1="151.397" x2="410.882" y2="107.352" gradientUnits="userSpaceOnUse">
<stop stop-color="#CC8F00"/>
<stop offset="0.4434" stop-color="#C58900"/>
<stop offset="1" stop-color="#B57C00"/>
</linearGradient>
<linearGradient id="paint3_linear" x1="528.106" y1="258.356" x2="505.156" y2="159.987" gradientUnits="userSpaceOnUse">
<stop stop-color="#CC8F00"/>
<stop offset="0.4434" stop-color="#C58900"/>
<stop offset="1" stop-color="#B57C00"/>
</linearGradient>
<linearGradient id="paint4_linear" x1="366.222" y1="169.333" x2="362.928" y2="155.215" gradientUnits="userSpaceOnUse">
<stop stop-color="white"/>
<stop offset="0.1865" stop-color="#E5E5E5"/>
<stop offset="0.4467" stop-color="#C6C6C6"/>
<stop offset="0.5922" stop-color="#BABABA"/>
</linearGradient>
<linearGradient id="paint5_linear" x1="611.625" y1="34.5598" x2="609.129" y2="23.8623" gradientUnits="userSpaceOnUse">
<stop stop-color="white"/>
<stop offset="0.1865" stop-color="#E5E5E5"/>
<stop offset="0.4467" stop-color="#C6C6C6"/>
<stop offset="0.5922" stop-color="#BABABA"/>
</linearGradient>
<linearGradient id="paint6_linear" x1="170.05" y1="229.454" x2="162.147" y2="195.578" gradientUnits="userSpaceOnUse">
<stop stop-color="#CC8F00"/>
<stop offset="0.4434" stop-color="#C58900"/>
<stop offset="1" stop-color="#B57C00"/>
</linearGradient>
<linearGradient id="paint7_linear" x1="280.201" y1="165.061" x2="279.051" y2="160.13" gradientUnits="userSpaceOnUse">
<stop stop-color="#EBEBEA"/>
<stop offset="0.2419" stop-color="#E1E1E0"/>
<stop offset="0.6475" stop-color="#C7C7C7"/>
<stop offset="0.8212" stop-color="#BABABA"/>
</linearGradient>
<linearGradient id="paint8_linear" x1="143.818" y1="233.439" x2="141.856" y2="225.027" gradientUnits="userSpaceOnUse">
<stop stop-color="#EBEBEA"/>
<stop offset="0.2419" stop-color="#E1E1E0"/>
<stop offset="0.6475" stop-color="#C7C7C7"/>
<stop offset="0.8212" stop-color="#BABABA"/>
</linearGradient>
<linearGradient id="paint9_linear" x1="533.919" y1="25.1472" x2="532.725" y2="20.0276" gradientUnits="userSpaceOnUse">
<stop stop-color="#EBEBEA"/>
<stop offset="0.2419" stop-color="#E1E1E0"/>
<stop offset="0.6475" stop-color="#C7C7C7"/>
<stop offset="0.8212" stop-color="#BABABA"/>
</linearGradient>
<linearGradient id="paint10_linear" x1="481.694" y1="92.5549" x2="481.139" y2="90.1786" gradientUnits="userSpaceOnUse">
<stop stop-color="#EBEBEA"/>
<stop offset="0.2419" stop-color="#E1E1E0"/>
<stop offset="0.6475" stop-color="#C7C7C7"/>
<stop offset="0.8212" stop-color="#BABABA"/>
</linearGradient>
<clipPath id="clip0">
<rect width="581" height="230" fill="white"/>
</clipPath>
</defs>
</svg>
