<svg width="230" height="35" viewBox="0 0 230 35" fill="none" xmlns="http://www.w3.org/2000/svg">
<path d="M3.96064 24.4909L19.5876 27.4955L20.8018 25.3979L6.91125 19.3886L3.96064 24.4909ZM11.201 11.9733L23.3553 20.9873L24.5696 18.8897L14.1516 6.87105L11.201 11.9733ZM7.56947 18.2548L21.4601 24.2641L22.6971 22.1212L10.5428 13.1072L7.56947 18.2548ZM18.1236 0L14.8439 5.68052L25.2618 17.6992L26.8052 15.0347L18.1236 0ZM0 31.3506H17.3632L18.9066 28.6861L3.27972 25.6814L0 31.3506Z" fill="#FCAF17"/>
<path d="M27.5547 24.333L31.6174 31.3515H36.2363L27.5547 16.3281L18.873 31.3515H23.4919L27.5547 24.333Z" fill="#FCAF17"/>
<path d="M64.5039 31.3278H71.1201L72.6408 28.6406H64.5039V31.3278Z" fill="white"/>
<path d="M64.5039 23.8672V26.5544H73.8437L75.3985 23.8672H64.5039Z" fill="white"/>
<path d="M204.75 27.0521V19.1152H201.822V31.3267H204.274L211.321 23.3331V31.3267H214.249V19.1152H211.661L204.75 27.0521Z" fill="white"/>
<path d="M81.7204 19.1152L74.707 31.3267H78.157L82.7758 23.2651L87.4287 31.3267H91.0602L84.0469 19.1152H81.7204Z" fill="white"/>
<path d="M60.6471 28.6407L53.6337 16.418H51.2392L44.2258 28.6407H42.864H42.4668V34.9109H45.2585V31.3279H59.6144V34.9109H62.4061V28.6407H62.077H60.6471ZM47.7212 28.6407L52.34 20.5678L56.9929 28.6407H47.7212Z" fill="white"/>
<path d="M156.36 19.1152H142.73V21.8024H154.794L156.36 19.1152Z" fill="white"/>
<path d="M78.1221 19.1152H64.5039V21.8024H76.5674L78.1221 19.1152Z" fill="white"/>
<path d="M227.413 19.1152L220.502 27.0521V19.1152H217.574V31.3267H220.037L227.073 23.3331V31.3267H230.001V19.1152H227.413Z" fill="white"/>
<path d="M195.568 23.866H189.156V19.1152H186.229V31.3267H189.156V26.5532H195.568V31.3267H198.496V19.1152H195.568V23.866Z" fill="white"/>
<path d="M159.947 19.1152L152.934 31.3267H156.395L161.014 23.2651L165.667 31.3267H169.287L162.273 19.1152H159.947Z" fill="white"/>
<path d="M131.007 23.4934H126.559V19.1055H123.631V31.3282H125.923H126.559H130.985C132.971 31.3282 135.036 30.2284 135.036 27.3485C135.025 23.5614 132.369 23.4934 131.007 23.4934ZM130.837 28.7431H126.547V26.0219H130.837C131.336 26.0219 132.097 26.1579 132.097 27.3825C132.097 28.5163 131.473 28.7431 130.837 28.7431Z" fill="white"/>
<path d="M139.417 19.1152H136.523V31.338H139.417V19.1152Z" fill="white"/>
<path d="M98.4388 18.8203C93.5475 18.8203 91.2324 21.8136 91.2324 25.1585C91.2324 28.6507 93.4908 31.4966 98.4388 31.4966C100.595 31.4966 105.588 30.4988 105.588 25.1585C105.588 21.6662 103.353 18.8203 98.4388 18.8203ZM98.4047 28.8094C95.5789 28.8094 94.3873 27.188 94.3873 25.1925C94.3873 23.0042 95.7492 21.5415 98.4047 21.5415C101.401 21.5415 102.422 23.0042 102.422 25.1925C102.422 27.8116 100.459 28.8094 98.4047 28.8094Z" fill="white"/>
<path d="M142.73 31.3278H149.347L150.879 28.6406H142.73V31.3278Z" fill="white"/>
<path d="M142.73 23.8672V26.5544H152.07L153.636 23.8672H142.73Z" fill="white"/>
<path d="M173.406 26.9841V19.1152H170.479V31.3267H172.941L179.989 23.4011V31.3267H182.917V19.1152H180.454L173.406 26.9841Z" fill="white"/>
<path d="M118.366 24.1268C119.137 23.798 119.796 23.2651 119.796 21.9385C119.796 19.41 117.674 19.1152 116.176 19.1152H108.266V31.338H116.312C120 31.338 120.76 29.3084 120.76 27.4489C120.772 25.3513 119.58 24.4896 118.366 24.1268ZM111.159 21.7004H115.846C116.55 21.7004 116.845 22.0632 116.845 22.7662C116.845 23.4918 116.38 23.866 115.846 23.866H111.159V21.7004ZM116.312 28.7415H111.159V26.1223H116.312C117.14 26.1223 117.742 26.3264 117.742 27.4149C117.742 28.2766 117.378 28.7415 116.312 28.7415Z" fill="white"/>
</svg>
