<?xml version="1.0" encoding="utf-8"?><svg viewBox="0 0 48 49" xmlns="http://www.w3.org/2000/svg" xmlns:xlink="http://www.w3.org/1999/xlink"><style>:root>svg{display:none}:root>svg:target{display:block}</style><svg fill="none" viewBox="0 0 27 28" id="ic_attachment" xmlns="http://www.w3.org/2000/svg"><path d="M6.612 16.48v-5.585A6.1 6.1 0 0 1 12.7 4.806v0a6.09 6.09 0 0 1 6.08 6.081v9.094a3.998 3.998 0 0 1-4.058 4.059 4.06 4.06 0 0 1-4.052-4.052v-9.532a2.003 2.003 0 0 1 2.03-2.03 2 2 0 0 1 2.03 2.03l-.036 9.935" stroke="currentColor" stroke-width="2" stroke-linecap="round" stroke-linejoin="round"/></svg><svg fill="none" viewBox="0 0 21 43" id="ic_bad" xmlns="http://www.w3.org/2000/svg"><path d="M.438 31.105c0-.625.182-1.145.546-1.562.378-.417.938-.625 1.68-.625s1.302.208 1.68.625c.39.417.586.938.586 1.563 0 .598-.196 1.1-.586 1.503-.378.404-.938.606-1.68.606s-1.302-.202-1.68-.606c-.364-.403-.546-.905-.546-1.504zM.457 13.86c0-.625.182-1.146.547-1.562.378-.417.937-.625 1.68-.625.742 0 1.302.208 1.68.625.39.416.585.937.585 1.562 0 .6-.195 1.1-.586 1.504-.377.404-.937.606-1.68.606-.742 0-1.301-.202-1.68-.606-.364-.403-.546-.905-.546-1.504zm9.648 7.598c0-2.943.391-5.768 1.172-8.477.795-2.708 1.973-5.169 3.536-7.382 1.562-2.214 3.183-3.776 4.863-4.688l.742 2.383c-1.901 1.458-3.464 3.685-4.688 6.68-1.21 2.994-1.875 6.347-1.992 10.058l-.02 1.66c0 5.026.919 9.388 2.755 13.086 1.106 2.214 2.422 3.946 3.945 5.196l-.742 2.207c-1.732-.964-3.386-2.578-4.961-4.844-3.073-4.427-4.61-9.72-4.61-15.879z" fill="currentColor"/></svg><svg fill="none" viewBox="0 0 20 20" id="ic_cart" xmlns="http://www.w3.org/2000/svg"><path d="M16.15 19H3.85a1 1 0 0 1-1-.84L1 7h18l-1.86 11.16a1 1 0 0 1-.99.84v0zM7 1L5 7M13 1l2 6M10 15v-4M6 15v-4M14 15v-4" stroke="currentColor" stroke-width="2" stroke-linecap="round" stroke-linejoin="round"/></svg><svg fill="none" viewBox="0 0 22 22" id="ic_close" xmlns="http://www.w3.org/2000/svg"><path d="M1 1l20 20m0-20L1 21" stroke="currentColor" stroke-width="2" stroke-linecap="round"/></svg><svg fill="none" viewBox="0 0 12 12" id="ic_delete" xmlns="http://www.w3.org/2000/svg"><path d="M1 1l10 10m0-10L1 11" stroke="currentColor" stroke-width="2" stroke-linecap="round"/></svg><svg fill="none" viewBox="0 0 19 19" id="ic_edit" xmlns="http://www.w3.org/2000/svg"><path d="M0 15.25V19h3.75L14.81 7.94l-3.75-3.75L0 15.25zM17.71 5.04a.996.996 0 0 0 0-1.41l-2.34-2.34a.996.996 0 0 0-1.41 0l-1.83 1.83 3.75 3.75 1.83-1.83z" fill="currentColor"/></svg><svg fill="none" viewBox="0 0 16 16" id="ic_error" xmlns="http://www.w3.org/2000/svg"><path d="M8 14.667A6.667 6.667 0 1 0 8 1.333a6.667 6.667 0 0 0 0 13.334zM3.334 12.667l9.333-9.334" stroke="currentColor" stroke-width="1.5" stroke-linecap="round" stroke-linejoin="round"/></svg><svg fill="none" viewBox="0 0 20 20" id="ic_file" xmlns="http://www.w3.org/2000/svg"><path d="M9 19H2a1 1 0 0 1-1-1V2a1 1 0 0 1 1-1h11m0 0l2 2m-2-2v2h2m0 0v10m-2 4l2 2 4-4M5 11h6M5 7h6" stroke="currentColor" stroke-width="2" stroke-linecap="round" stroke-linejoin="round"/></svg><svg fill="none" viewBox="0 0 22 26" id="ic_file2" xmlns="http://www.w3.org/2000/svg"><path d="M14.088 0H3.741A3.05 3.05 0 0 0 .694 3.047v19.906A3.05 3.05 0 0 0 3.741 26H18.26a3.05 3.05 0 0 0 3.047-3.047V7.254L14.088 0zm.565 3.448l3.194 3.21H15.67c-.56 0-1.016-.456-1.016-1.016V3.448zm4.622 19.505c0 .56-.456 1.016-1.016 1.016H3.741c-.56 0-1.015-.456-1.015-1.016V3.047c0-.56.455-1.016 1.015-1.016h8.881v3.611A3.05 3.05 0 0 0 15.67 8.69h3.606v14.264z" fill="currentColor"/></svg><svg fill="none" viewBox="0 0 14 19" id="ic_flag" xmlns="http://www.w3.org/2000/svg"><path d="M0 18.018V.038h14v1.057l-4 4.23v1.058l4 4.231v1.058H2v6.346H0z" fill="currentColor"/></svg><svg fill="none" viewBox="0 0 17 16" id="ic_like" xmlns="http://www.w3.org/2000/svg"><path d="M12.516.957a4.83 4.83 0 0 0-3.6 1.64 4.83 4.83 0 0 0-3.6-1.64c-2.464 0-4.4 1.9-4.4 4.316 0 2.966 2.72 5.383 6.84 9.056l1.16 1.028 1.16-1.036c4.12-3.665 6.84-6.082 6.84-9.048 0-2.417-1.936-4.316-4.4-4.316zM8.996 13.16l-.08.078-.08-.078c-3.808-3.382-6.32-5.619-6.32-7.887 0-1.57 1.2-2.746 2.8-2.746 1.232 0 2.432.776 2.856 1.851h1.496c.416-1.075 1.616-1.851 2.848-1.851 1.6 0 2.8 1.177 2.8 2.746 0 2.268-2.512 4.505-6.32 7.887z" fill="currentColor"/></svg><svg fill="none" viewBox="0 0 16 15" id="ic_like_a" xmlns="http://www.w3.org/2000/svg"><path d="M8 14.4l-1.16-1.036C2.72 9.7 0 7.282 0 4.316 0 1.9 1.936 0 4.4 0A4.83 4.83 0 0 1 8 1.64 4.83 4.83 0 0 1 11.6 0C14.064 0 16 1.9 16 4.316c0 2.966-2.72 5.383-6.84 9.056L8 14.4z" fill="currentColor"/></svg><svg fill="none" viewBox="0 0 20 14" id="ic_menu" xmlns="http://www.w3.org/2000/svg"><path d="M1 13h18M1 7h18M1 1h18" stroke="currentColor" stroke-width="2" stroke-linecap="round" stroke-linejoin="round"/></svg><svg fill="none" viewBox="0 0 20 20" id="ic_notifications" xmlns="http://www.w3.org/2000/svg"><path d="M10 1a7 7 0 0 1 7 7v8H3V8a7 7 0 0 1 7-7v0zM7 16a3 3 0 0 0 6 0M1 16h18H1z" stroke="currentColor" stroke-width="2" stroke-linecap="round" stroke-linejoin="round"/></svg><svg fill="none" viewBox="0 0 18 22" id="ic_pdf" xmlns="http://www.w3.org/2000/svg"><path d="M4.48 14.154c0-.365-.253-.583-.7-.583-.183 0-.307.018-.371.035v1.173c.076.017.17.023.3.023.477 0 .772-.241.772-.648zM7.25 13.583c-.2 0-.33.018-.407.035v2.597c.077.018.2.018.312.018.813.005 1.343-.442 1.343-1.39.006-.824-.477-1.26-1.248-1.26z" fill="currentColor"/><path d="M12.394 0H3.558a2.345 2.345 0 0 0-2.341 2.341V11H.988a.943.943 0 0 0-.944.944v5.722c0 .521.423.943.944.943h.229v1.05A2.344 2.344 0 0 0 3.558 22h12.057c1.29 0 2.34-1.05 2.34-2.341V5.541L12.396 0zM2.52 12.976a7.398 7.398 0 0 1 1.213-.082c.553 0 .947.106 1.212.318.254.2.424.53.424.918 0 .389-.129.719-.365.942-.306.289-.759.418-1.289.418-.118 0-.224-.005-.306-.017v1.419h-.89v-3.916zm13.095 7.59H3.558a.908.908 0 0 1-.907-.907v-1.05h11.24a.943.943 0 0 0 .943-.943v-5.723A.943.943 0 0 0 13.89 11H2.651V2.341c0-.499.407-.906.907-.906l8.3-.008v3.068c0 .896.727 1.623 1.624 1.623l3.005-.008.034 13.548c0 .501-.407.908-.906.908zm-9.672-3.692v-3.898c.33-.052.759-.082 1.212-.082.754 0 1.243.135 1.626.424.412.306.67.795.67 1.496 0 .759-.276 1.283-.659 1.607-.418.347-1.054.512-1.83.512-.466 0-.796-.03-1.02-.059zm6.425-2.308v.73h-1.425v1.596h-.9v-3.968h2.425v.735h-1.524v.907h1.424z" fill="currentColor"/></svg><svg fill="none" viewBox="0 0 20 20" id="ic_search" xmlns="http://www.w3.org/2000/svg"><path d="M19 19l-4.322-4.322m1.954-5.862A7.816 7.816 0 1 1 1 8.816a7.816 7.816 0 0 1 15.632 0z" stroke="currentColor" stroke-width="2" stroke-linecap="round" stroke-linejoin="round"/></svg><svg fill="none" viewBox="0 0 30 30" id="ic_send" xmlns="http://www.w3.org/2000/svg"><path d="M11.393 6.826l15.28 7.233a1 1 0 0 1 0 1.881l-15.28 7.234a1 1 0 0 1-1.38-1.379l2.836-6.385a1 1 0 0 0 0-.849L10 8.191a1 1 0 0 1 1.394-1.365v0zM13.02 15h4.171" stroke="currentColor" stroke-width="2" stroke-linecap="round" stroke-linejoin="round"/></svg><svg fill="none" viewBox="0 0 20 20" id="ic_share" xmlns="http://www.w3.org/2000/svg"><path d="M4 13a3 3 0 1 0 0-6 3 3 0 0 0 0 6zM16 19a3 3 0 1 0 0-6 3 3 0 0 0 0 6zM6.68 11.34l6.62 3.31M16 7a3 3 0 1 0 0-6 3 3 0 0 0 0 6zM6.68 8.66l6.62-3.31" stroke="currentColor" stroke-width="2" stroke-linecap="round" stroke-linejoin="round"/></svg><svg fill="none" viewBox="0 0 17 17" id="ic_smile" xmlns="http://www.w3.org/2000/svg"><path d="M11.237 7.513a1.2 1.2 0 1 0 0-2.4 1.2 1.2 0 0 0 0 2.4zM5.64 7.513a1.2 1.2 0 1 0 0-2.4 1.2 1.2 0 0 0 0 2.4z" fill="currentColor"/><path d="M8.44 11.512c-1.185 0-2.2-.648-2.76-1.6H4.342a4.396 4.396 0 0 0 8.193 0H11.2c-.56.952-1.577 1.6-2.76 1.6zM8.43.313C4.015.313.44 3.897.44 8.313c0 4.417 3.576 8 7.992 8 4.425 0 8.008-3.584 8.008-8 0-4.415-3.584-8-8.008-8zm.008 14.4a6.398 6.398 0 0 1-6.4-6.4c0-3.535 2.864-6.4 6.4-6.4 3.537 0 6.4 2.865 6.4 6.4 0 3.537-2.864 6.4-6.4 6.4z" fill="currentColor"/></svg><svg fill="none" viewBox="0 0 42 42" id="ic_success" xmlns="http://www.w3.org/2000/svg"><circle cx="21" cy="21" r="20" stroke="currentColor" stroke-width="2"/><path d="M11.77 21l6.538 6.538L31.385 14.46" stroke="currentColor" stroke-width="2"/></svg><svg fill="none" viewBox="0 0 42 42" id="ic_time" xmlns="http://www.w3.org/2000/svg"><path d="M21 41c11.046 0 20-8.954 20-20S32.046 1 21 1 1 9.954 1 21s8.954 20 20 20z" stroke="currentColor" stroke-width="2" stroke-linecap="round" stroke-linejoin="round"/><path d="M21 9.889V21l9 4.5" stroke="currentColor" stroke-width="2" stroke-linecap="round" stroke-linejoin="round"/></svg><svg fill="none" viewBox="0 0 18 18" id="ic_tooltip" xmlns="http://www.w3.org/2000/svg"><path d="M9 14.185a.879.879 0 1 0 0-1.757.879.879 0 0 0 0 1.757z" fill="currentColor"/><path d="M9 0C4.026 0 0 4.025 0 9c0 4.974 4.025 9 9 9 4.974 0 9-4.025 9-9 0-4.974-4.025-9-9-9zm0 16.594A7.59 7.59 0 0 1 1.406 9 7.59 7.59 0 0 1 9 1.406 7.59 7.59 0 0 1 16.594 9 7.59 7.59 0 0 1 9 16.594z" fill="currentColor"/><path d="M9 4.518A2.816 2.816 0 0 0 6.187 7.33a.703.703 0 1 0 1.407 0c0-.775.63-1.406 1.406-1.406.775 0 1.406.63 1.406 1.406 0 .775-.63 1.406-1.406 1.406a.703.703 0 0 0-.703.703v1.758a.703.703 0 0 0 1.406 0v-1.143a2.818 2.818 0 0 0 2.11-2.724A2.816 2.816 0 0 0 9 4.518z" fill="currentColor"/></svg><svg fill="none" viewBox="0 0 48 49" id="ic_video_play" xmlns="http://www.w3.org/2000/svg"><path d="M24.034.502C10.877.502.2 11.18.2 24.337s10.678 23.835 23.835 23.835S47.87 37.494 47.87 24.337 37.191.502 24.034.502zm-4.767 34.56v-21.45l14.301 10.725-14.3 10.726z" fill="currentColor"/></svg><svg fill="none" viewBox="0 0 21 13" id="ic_view" xmlns="http://www.w3.org/2000/svg"><path d="M10.5 10a3.5 3.5 0 1 0 0-7 3.5 3.5 0 0 0 0 7z" stroke="currentColor" stroke-miterlimit="10"/><path d="M1 6.52c4.193 7.231 14.228 7.395 19-.04C15.228-.953 5.197-.711 1 6.52z" stroke="currentColor" stroke-miterlimit="10"/></svg></svg>