<svg width="17" height="16" viewBox="0 0 17 16" fill="none" xmlns="http://www.w3.org/2000/svg">
<path d="M12.516 0.957031C11.124 0.957031 9.78802 1.59267 8.91602 2.59714C8.04402 1.59267 6.70802 0.957031 5.31602 0.957031C2.85202 0.957031 0.916016 2.8561 0.916016 5.27311C0.916016 8.23943 3.63602 10.6564 7.75602 14.329L8.91602 15.357L10.076 14.3212C14.196 10.6564 16.916 8.23943 16.916 5.27311C16.916 2.8561 14.98 0.957031 12.516 0.957031ZM8.99602 13.1598L8.91602 13.2382L8.83602 13.1598C5.02802 9.77752 2.51602 7.54101 2.51602 5.27311C2.51602 3.70363 3.71602 2.52651 5.31602 2.52651C6.54802 2.52651 7.74802 3.30341 8.17202 4.3785H9.66802C10.084 3.30341 11.284 2.52651 12.516 2.52651C14.116 2.52651 15.316 3.70363 15.316 5.27311C15.316 7.54101 12.804 9.77752 8.99602 13.1598Z" fill="currentColor"/>
</svg>
