<svg width="21" height="21" viewBox="0 0 21 21" fill="none" xmlns="http://www.w3.org/2000/svg">
<path d="M10.2709 1.30469C11.9988 1.30469 13.6559 2.01725 14.8777 3.28561C16.0995 4.55397 16.7859 6.27424 16.7859 8.06797V15.7974H3.75586V8.06797C3.75586 6.27424 4.44226 4.55397 5.66407 3.28561C6.88587 2.01725 8.543 1.30469 10.2709 1.30469V1.30469Z" stroke="currentColor" stroke-width="2" stroke-linecap="round" stroke-linejoin="round"/>
<path d="M7.47885 15.7969C7.47885 16.5656 7.77302 17.3029 8.29665 17.8465C8.82028 18.39 9.53048 18.6954 10.271 18.6954C11.0115 18.6954 11.7217 18.39 12.2454 17.8465C12.769 17.3029 13.0632 16.5656 13.0632 15.7969M1.89453 15.7969H18.6475H1.89453Z" stroke="currentColor" stroke-width="2" stroke-linecap="round" stroke-linejoin="round"/>
<path d="M19.5 2L2.41421 19" stroke="currentColor" stroke-width="2" stroke-linecap="round"/>
</svg>
