<svg width="18" height="22" viewBox="0 0 18 22" fill="none" xmlns="http://www.w3.org/2000/svg">
<path d="M4.48052 14.1543C4.48052 13.7889 4.227 13.571 3.77969 13.571C3.59704 13.571 3.47333 13.5891 3.40863 13.6063V14.7786C3.48524 14.7958 3.57942 14.8015 3.70924 14.8015C4.18603 14.8015 4.48052 14.5607 4.48052 14.1543Z" fill="currentColor"/>
<path d="M7.2496 13.5833C7.04928 13.5833 6.91983 13.6005 6.84326 13.6185V16.2146C6.91987 16.2326 7.04358 16.2326 7.15542 16.2326C7.96804 16.2384 8.49803 15.7911 8.49803 14.8432C8.50378 14.019 8.02083 13.5833 7.2496 13.5833Z" fill="currentColor"/>
<path d="M12.3943 0H3.55822C2.26735 0 1.21673 1.05136 1.21673 2.3415V11H0.98803C0.467028 11 0.0444946 11.4221 0.0444946 11.9435V17.6657C0.0444946 18.1871 0.466982 18.6092 0.98803 18.6092H1.21673V19.6585C1.21673 20.95 2.26735 22 3.55822 22H15.6147C16.9047 22 17.9555 20.95 17.9555 19.6585V5.54171L12.3943 0ZM2.51978 12.9762C2.7963 12.9295 3.18497 12.8942 3.73258 12.8942C4.28598 12.8942 4.6804 12.9999 4.94542 13.212C5.19857 13.412 5.36941 13.742 5.36941 14.1304C5.36941 14.5188 5.23996 14.8489 5.00442 15.0725C4.69806 15.3609 4.245 15.4903 3.71501 15.4903C3.59706 15.4903 3.49133 15.4845 3.40865 15.4731V16.892H2.51978V12.9762ZM15.6147 20.566H3.55822C3.05839 20.566 2.65138 20.159 2.65138 19.6585V18.6092H13.8905C14.4116 18.6092 14.8341 18.1871 14.8341 17.6657V11.9435C14.8341 11.4221 14.4116 11 13.8905 11H2.65138V2.3415C2.65138 1.8424 3.05844 1.43538 3.55822 1.43538L11.8578 1.42671V4.49455C11.8578 5.39063 12.5849 6.11838 13.4817 6.11838L16.487 6.10975L16.5208 19.6584C16.5208 20.159 16.1145 20.566 15.6147 20.566ZM5.94257 16.874V12.9762C6.27225 12.9237 6.70194 12.8942 7.15541 12.8942C7.90904 12.8942 8.39773 13.0294 8.78066 13.3178C9.19274 13.6241 9.4516 14.1125 9.4516 14.8136C9.4516 15.573 9.17508 16.0973 8.79211 16.4208C8.37428 16.7682 7.73824 16.9329 6.96121 16.9329C6.49588 16.9329 6.1662 16.9034 5.94257 16.874ZM12.3685 14.5663V15.2961H10.9435V16.892H10.0427V12.9237H12.4684V13.6594H10.9435V14.5663H12.3685Z" fill="currentColor"/>
</svg>
