<svg width="30" height="30" viewBox="0 0 30 30" fill="none" xmlns="http://www.w3.org/2000/svg">
<path d="M11.3926 6.82568L26.6732 14.0594C26.8666 14.1293 27.0337 14.2571 27.1518 14.4253C27.2699 14.5936 27.3333 14.7942 27.3333 14.9998C27.3333 15.2054 27.2699 15.406 27.1518 15.5743C27.0337 15.7426 26.8666 15.8704 26.6732 15.9403L11.3926 23.174C11.2008 23.2946 10.9737 23.3465 10.7485 23.3212C10.5234 23.2958 10.3135 23.1948 10.1532 23.0345C9.99301 22.8743 9.89195 22.6644 9.86661 22.4392C9.84128 22.2141 9.89317 21.987 10.0138 21.7951L12.8493 15.41C12.9115 15.2772 12.9437 15.1323 12.9437 14.9857C12.9437 14.8391 12.9115 14.6942 12.8493 14.5614L9.99965 8.19039C9.88094 7.99733 9.83133 7.76968 9.85895 7.54473C9.88657 7.31978 9.98978 7.11089 10.1517 6.95228C10.3136 6.79368 10.5245 6.69477 10.75 6.67177C10.9755 6.64876 11.2021 6.70303 11.3926 6.82568V6.82568Z" stroke="currentColor" stroke-width="2" stroke-linecap="round" stroke-linejoin="round"/>
<path d="M13.0195 14.9999H17.1914" stroke="currentColor" stroke-width="2" stroke-linecap="round" stroke-linejoin="round"/>
</svg>
