<svg width="17" height="17" viewBox="0 0 17 17" fill="none" xmlns="http://www.w3.org/2000/svg">
<path d="M11.2371 7.51328C11.8999 7.51328 12.4371 6.97602 12.4371 6.31328C12.4371 5.65054 11.8999 5.11328 11.2371 5.11328C10.5744 5.11328 10.0371 5.65054 10.0371 6.31328C10.0371 6.97602 10.5744 7.51328 11.2371 7.51328Z" fill="currentColor"/>
<path d="M5.63945 7.51328C6.30219 7.51328 6.83945 6.97602 6.83945 6.31328C6.83945 5.65054 6.30219 5.11328 5.63945 5.11328C4.97671 5.11328 4.43945 5.65054 4.43945 6.31328C4.43945 6.97602 4.97671 7.51328 5.63945 7.51328Z" fill="currentColor"/>
<path d="M8.43945 11.5125C7.25545 11.5125 6.23945 10.8645 5.67945 9.9125H4.34345C4.98345 11.5525 6.57545 12.7125 8.43945 12.7125C10.3035 12.7125 11.8955 11.5525 12.5355 9.9125H11.1995C10.6395 10.8645 9.62345 11.5125 8.43945 11.5125ZM8.43145 0.3125C4.01545 0.3125 0.439453 3.8965 0.439453 8.3125C0.439453 12.7285 4.01545 16.3125 8.43145 16.3125C12.8555 16.3125 16.4395 12.7285 16.4395 8.3125C16.4395 3.8965 12.8555 0.3125 8.43145 0.3125ZM8.43945 14.7125C4.90345 14.7125 2.03945 11.8485 2.03945 8.3125C2.03945 4.7765 4.90345 1.9125 8.43945 1.9125C11.9755 1.9125 14.8395 4.7765 14.8395 8.3125C14.8395 11.8485 11.9755 14.7125 8.43945 14.7125Z" fill="currentColor"/>
</svg>
