<svg width="630" height="249" viewBox="0 0 630 249" fill="none" xmlns="http://www.w3.org/2000/svg">
<g clip-path="url(#clip0)">
<path d="M540.265 150.385L637.261 127.014V95.5104L540.265 118.604V150.385Z" fill="url(#paint0_linear)"/>
<path d="M513.753 90.3917L680.619 51.2031V27.7268L513.753 66.9089V90.3917Z" fill="url(#paint1_linear)"/>
<path d="M384.317 173.294L514.865 142.707V92.6081L384.317 123.189V173.294Z" fill="url(#paint2_linear)"/>
<path d="M406.323 301.764L707.321 230.847V119.363L406.323 190.286V301.764Z" fill="url(#paint3_linear)"/>
<path d="M332.223 198.433L458.496 168.973V152.905L332.223 182.364V198.433Z" fill="url(#paint4_linear)"/>
<path d="M332.223 182.364V183.802L458.496 154.343V152.905L332.223 182.364Z" fill="white"/>
<path d="M598.746 52.43L725.019 22.3113V10.8073L598.746 40.9261V52.43Z" fill="url(#paint5_linear)"/>
<path d="M598.746 40.9261V41.7044L725.019 11.5857V10.8073L598.746 40.9261Z" fill="white"/>
<path d="M48.7668 274.257L309.118 213.518V174.943L48.7668 235.688L48.7668 274.257Z" fill="url(#paint6_linear)"/>
<path d="M609.828 272.661L609.841 277.74L782.428 237.008V231.981L609.828 272.661Z" fill="#F9B400"/>
<path d="M609.828 272.107V274.369L782.428 233.696V231.427L609.828 272.107Z" fill="#FDD948"/>
<path d="M394.941 44.9696V48.3733L434.495 39.3694V36.0185L394.941 44.9696Z" fill="#F9B400"/>
<path d="M394.941 44.4155V45.3588L434.495 36.4076V35.4644L394.941 44.4155Z" fill="#FDD948"/>
<path d="M6.68918 249.363L144.906 217.291V206.5L6.68918 239.231L6.68918 249.363Z" fill="#F9B400"/>
<path d="M6.68918 239.231V240.484L144.906 207.753V206.5L6.68918 239.231Z" fill="#FDD948"/>
<path d="M414.025 123.287L533.943 95.0553V65.6622L414.025 93.901V123.287Z" fill="#F9B400"/>
<path d="M414.025 93.901V95.1477L533.943 66.9155V65.6622L414.025 93.901Z" fill="#FDD948"/>
<path d="M137.499 160.511L329.647 115.076V109.291L137.499 154.726V160.511Z" fill="#F9B400"/>
<path d="M137.499 154.726V155.98L329.647 110.538V109.291L137.499 154.726Z" fill="#FDD948"/>
<path d="M333.982 291.836L525.286 247.12V231.157L333.982 275.873V291.836Z" fill="#F9B400"/>
<path d="M333.982 275.873V278.525L525.286 233.809V231.157L333.982 275.873Z" fill="#FDD948"/>
<path d="M309.118 158.95L394.856 138.878V128.211L309.118 148.284V158.95Z" fill="#F9B400"/>
<path d="M309.118 148.261V149.514L394.856 129.442V128.188L309.118 148.261Z" fill="#FDD948"/>
<path d="M606.918 136.144L679.816 118.993V113.195L606.918 130.345V136.144Z" fill="#F9B400"/>
<path d="M606.918 130.345V131.599L679.816 114.448V113.195L606.918 130.345Z" fill="#FDD948"/>
<path d="M564.246 81.0909L632.926 64.7255V60.0751L564.246 76.4405V81.0909Z" fill="#F9B400"/>
<path d="M564.246 76.4406V77.1134L632.926 60.7479V60.0751L564.246 76.4406Z" fill="#FDD948"/>
<path d="M511.06 171.797L567.05 158.591V134.877L511.06 148.083V171.797Z" fill="#F9B400"/>
<path d="M511.06 148.083V149.415L567.05 136.21V134.877L511.06 148.083Z" fill="#FDD948"/>
<path d="M185.84 277.919L496.408 206.171V159.562L185.84 231.97L185.84 277.919Z" fill="#F9B400"/>
<path d="M185.84 231.97V233.678L496.408 161.27V159.562L185.84 231.97Z" fill="#FDD948"/>
<path d="M455.854 289.547L766.423 217.14V153.38L455.854 225.787V289.547Z" fill="#F9B400"/>
<path d="M455.854 225.787V227.496L766.423 155.088V153.38L455.854 225.787Z" fill="#FDD948"/>
<path d="M412.057 148.211L412.07 150.652L699.397 82.6174V80.2295L412.057 148.211Z" fill="#F9B400"/>
<path d="M412.085 148.182V148.967L699.424 80.9853V80.2004L412.085 148.182Z" fill="#FDD948"/>
<path d="M253.664 190.246L352.778 167.298V161.803L253.664 184.752V190.246Z" fill="url(#paint7_linear)"/>
<path d="M253.664 184.752V186.19L352.778 163.241V161.803L253.664 184.752Z" fill="white"/>
<path d="M133.942 257.7L175.863 248.083V238.63L133.942 248.248V257.7Z" fill="url(#paint8_linear)"/>
<path d="M133.942 248.248V250.345L175.863 240.728V238.63L133.942 248.248Z" fill="white"/>
<path d="M552.359 33.4194L604.27 21.0778V15.4841L552.359 27.8192V33.4194Z" fill="url(#paint9_linear)"/>
<path d="M552.359 27.8191V28.5975L604.27 16.2625V15.4841L552.359 27.8191Z" fill="white"/>
<path d="M496.598 106.19L547.45 94.2637V91.6318L496.598 103.565V106.19Z" fill="url(#paint10_linear)"/>
<path d="M496.598 103.565V104.198L547.45 92.2716V91.6318L496.598 103.565Z" fill="white"/>
</g>
<defs>
<linearGradient id="paint0_linear" x1="583.613" y1="105.636" x2="598.23" y2="153.925" gradientUnits="userSpaceOnUse">
<stop stop-color="#7C7B7B"/>
<stop offset="0.5021" stop-color="#8E8E8E"/>
<stop offset="0.8828" stop-color="#969696"/>
</linearGradient>
<linearGradient id="paint1_linear" x1="603.917" y1="85.8199" x2="591.713" y2="38.15" gradientUnits="userSpaceOnUse">
<stop stop-color="#7C7B7B"/>
<stop offset="0.2701" stop-color="#8E8E8E"/>
<stop offset="0.475" stop-color="#969696"/>
<stop offset="0.7997" stop-color="#818181"/>
<stop offset="0.8989" stop-color="#7A7979"/>
</linearGradient>
<linearGradient id="paint2_linear" x1="456.677" y1="163.905" x2="445.568" y2="116.213" gradientUnits="userSpaceOnUse">
<stop stop-color="#CC8F00"/>
<stop offset="0.4434" stop-color="#C58900"/>
<stop offset="1" stop-color="#B57C00"/>
</linearGradient>
<linearGradient id="paint3_linear" x1="572.644" y1="279.699" x2="547.834" y2="173.187" gradientUnits="userSpaceOnUse">
<stop stop-color="#CC8F00"/>
<stop offset="0.4434" stop-color="#C58900"/>
<stop offset="1" stop-color="#B57C00"/>
</linearGradient>
<linearGradient id="paint4_linear" x1="397.109" y1="183.321" x2="393.548" y2="168.034" gradientUnits="userSpaceOnUse">
<stop stop-color="white"/>
<stop offset="0.1865" stop-color="#E5E5E5"/>
<stop offset="0.4467" stop-color="#C6C6C6"/>
<stop offset="0.5922" stop-color="#BABABA"/>
</linearGradient>
<linearGradient id="paint5_linear" x1="663.207" y1="37.415" x2="660.509" y2="25.832" gradientUnits="userSpaceOnUse">
<stop stop-color="white"/>
<stop offset="0.1865" stop-color="#E5E5E5"/>
<stop offset="0.4467" stop-color="#C6C6C6"/>
<stop offset="0.5922" stop-color="#BABABA"/>
</linearGradient>
<linearGradient id="paint6_linear" x1="184.391" y1="248.409" x2="175.847" y2="211.729" gradientUnits="userSpaceOnUse">
<stop stop-color="#CC8F00"/>
<stop offset="0.4434" stop-color="#C58900"/>
<stop offset="1" stop-color="#B57C00"/>
</linearGradient>
<linearGradient id="paint7_linear" x1="303.833" y1="178.696" x2="302.59" y2="173.357" gradientUnits="userSpaceOnUse">
<stop stop-color="#EBEBEA"/>
<stop offset="0.2419" stop-color="#E1E1E0"/>
<stop offset="0.6475" stop-color="#C7C7C7"/>
<stop offset="0.8212" stop-color="#BABABA"/>
</linearGradient>
<linearGradient id="paint8_linear" x1="155.946" y1="252.723" x2="153.825" y2="243.615" gradientUnits="userSpaceOnUse">
<stop stop-color="#EBEBEA"/>
<stop offset="0.2419" stop-color="#E1E1E0"/>
<stop offset="0.6475" stop-color="#C7C7C7"/>
<stop offset="0.8212" stop-color="#BABABA"/>
</linearGradient>
<linearGradient id="paint9_linear" x1="578.948" y1="27.2245" x2="577.657" y2="21.681" gradientUnits="userSpaceOnUse">
<stop stop-color="#EBEBEA"/>
<stop offset="0.2419" stop-color="#E1E1E0"/>
<stop offset="0.6475" stop-color="#C7C7C7"/>
<stop offset="0.8212" stop-color="#BABABA"/>
</linearGradient>
<linearGradient id="paint10_linear" x1="522.318" y1="100.2" x2="521.718" y2="97.6268" gradientUnits="userSpaceOnUse">
<stop stop-color="#EBEBEA"/>
<stop offset="0.2419" stop-color="#E1E1E0"/>
<stop offset="0.6475" stop-color="#C7C7C7"/>
<stop offset="0.8212" stop-color="#BABABA"/>
</linearGradient>
<clipPath id="clip0">
<rect width="630" height="249" fill="white"/>
</clipPath>
</defs>
</svg>
