<svg width="230" height="35" viewBox="0 0 230 35" fill="none" xmlns="http://www.w3.org/2000/svg">
<path d="M3.96064 24.4909L19.5876 27.4955L20.8018 25.3979L6.91125 19.3886L3.96064 24.4909ZM11.201 11.9733L23.3553 20.9873L24.5696 18.8897L14.1516 6.87105L11.201 11.9733ZM7.56947 18.2548L21.4601 24.2641L22.6971 22.1212L10.5428 13.1072L7.56947 18.2548ZM18.1236 0L14.8439 5.68052L25.2618 17.6992L26.8052 15.0347L18.1236 0ZM0 31.3506H17.3632L18.9066 28.6861L3.27972 25.6814L0 31.3506Z" fill="#FCAF17"/>
<path d="M27.5538 24.3322L31.6166 31.3506H36.2354L27.5538 16.3273L18.8722 31.3506H23.491L27.5538 24.3322Z" fill="#FCAF17"/>
<path d="M64.5045 31.3279H71.1207L72.6414 28.6407H64.5045V31.3279Z" fill="white"/>
<path d="M64.5045 23.8668V26.554H73.8443L75.3991 23.8668H64.5045Z" fill="white"/>
<path d="M204.751 27.0527V19.1159H201.823V31.3273H204.274L211.321 23.3337V31.3273H214.249V19.1159H211.662L204.751 27.0527Z" fill="white"/>
<path d="M81.7211 19.1159L74.7077 31.3273H78.1577L82.7765 23.2657L87.4294 31.3273H91.0609L84.0475 19.1159H81.7211Z" fill="white"/>
<path d="M60.6471 28.6403L53.6337 16.4175H51.2391L44.2258 28.6403H42.8639H42.4667V34.9104H45.2585V31.3275H59.6143V34.9104H62.4061V28.6403H62.077H60.6471ZM47.7211 28.6403L52.3399 20.5674L56.9928 28.6403H47.7211Z" fill="white"/>
<path d="M156.359 19.1159H142.73V21.8031H154.793L156.359 19.1159Z" fill="white"/>
<path d="M78.1227 19.1159H64.5045V21.8031H76.568L78.1227 19.1159Z" fill="white"/>
<path d="M227.413 19.1159L220.501 27.0527V19.1159H217.573V31.3273H220.036L227.072 23.3337V31.3273H230V19.1159H227.413Z" fill="white"/>
<path d="M195.569 23.8666H189.157V19.1159H186.229V31.3273H189.157V26.5538H195.569V31.3273H198.496V19.1159H195.569V23.8666Z" fill="white"/>
<path d="M159.946 19.1159L152.933 31.3273H156.394L161.013 23.2657L165.666 31.3273H169.286L162.273 19.1159H159.946Z" fill="white"/>
<path d="M131.007 23.4928H126.558V19.1049H123.63V31.3276H125.923H126.558H130.984C132.97 31.3276 135.036 30.2278 135.036 27.3478C135.024 23.5608 132.369 23.4928 131.007 23.4928ZM130.837 28.7425H126.547V26.0213H130.837C131.336 26.0213 132.096 26.1573 132.096 27.3819C132.096 28.5157 131.472 28.7425 130.837 28.7425Z" fill="white"/>
<path d="M139.417 19.1159H136.523V31.3386H139.417V19.1159Z" fill="white"/>
<path d="M98.4379 18.8211C93.5467 18.8211 91.2316 21.8144 91.2316 25.1592C91.2316 28.6514 93.4899 31.4974 98.4379 31.4974C100.594 31.4974 105.588 30.4996 105.588 25.1592C105.588 21.667 103.352 18.8211 98.4379 18.8211ZM98.4039 28.8102C95.5781 28.8102 94.3865 27.1888 94.3865 25.1932C94.3865 23.0049 95.7483 21.5423 98.4039 21.5423C101.4 21.5423 102.421 23.0049 102.421 25.1932C102.421 27.8124 100.458 28.8102 98.4039 28.8102Z" fill="white"/>
<path d="M142.73 31.3279H149.346L150.878 28.6407H142.73V31.3279Z" fill="white"/>
<path d="M142.73 23.8668V26.554H152.069L153.636 23.8668H142.73Z" fill="white"/>
<path d="M173.406 26.9847V19.1159H170.478V31.3273H172.941L179.988 23.4018V31.3273H182.916V19.1159H180.453L173.406 26.9847Z" fill="white"/>
<path d="M118.365 24.1274C119.137 23.7986 119.795 23.2657 119.795 21.9391C119.795 19.4107 117.673 19.1159 116.175 19.1159H108.265V31.3386H116.311C119.999 31.3386 120.759 29.3091 120.759 27.4496C120.771 25.352 119.579 24.4903 118.365 24.1274ZM111.159 21.701H115.846C116.549 21.701 116.844 22.0638 116.844 22.7668C116.844 23.4925 116.379 23.8666 115.846 23.8666H111.159V21.701ZM116.311 28.7421H111.159V26.123H116.311C117.139 26.123 117.741 26.3271 117.741 27.4156C117.741 28.2773 117.378 28.7421 116.311 28.7421Z" fill="white"/>
</svg>
