<svg width="266" height="21" viewBox="0 0 266 21" fill="none" xmlns="http://www.w3.org/2000/svg">
<path d="M4.68 5.66992H3.17L0 9.84992V10.0499L3.17 14.2199H4.68L1.91 9.95992L4.68 5.66992ZM8.23 5.66992H6.71L3.54 9.84992V10.0499L6.71 14.2199H8.22L5.46 9.95992L8.23 5.66992Z" fill="#FCAF17"/>
<path d="M25.14 14.1602H23.1V0.200195H13.74L13.4 6.9002C13.3 8.43019 13.05 9.8302 12.65 11.1102C12.25 12.3902 11.72 13.4102 11.04 14.1702H9.76001L9.77001 19.7002H11.83V15.8502H23.06V19.6802H25.11L25.14 14.1602ZM14.79 11.0902C15.17 9.8202 15.41 8.2902 15.5 6.4902L15.73 1.8902H21.03V14.1602H13.4C13.94 13.3802 14.4 12.3602 14.79 11.0902Z" fill="#FCAF17"/>
<path d="M36.48 13.8198L35.27 12.8698C34.9 13.3398 34.48 13.7198 33.99 14.0098C33.5 14.2998 32.91 14.4398 32.21 14.4398C31.22 14.4398 30.41 14.0898 29.77 13.3798C29.13 12.6698 28.79 11.7498 28.77 10.5998H36.64V9.77977C36.64 7.92977 36.22 6.49977 35.38 5.49977C34.54 4.49977 33.37 4.00977 31.86 4.00977C30.94 4.00977 30.08 4.26977 29.29 4.77977C28.5 5.28977 27.88 5.99977 27.44 6.90977C27 7.81977 26.78 8.84977 26.78 9.99977V10.3698C26.78 12.0998 27.27 13.4898 28.26 14.5198C29.25 15.5598 30.53 16.0698 32.11 16.0698C34.05 16.0598 35.51 15.3098 36.48 13.8198ZM33.83 6.46977C34.32 7.01977 34.59 7.80977 34.65 8.81977V8.96977H28.83C28.96 7.91977 29.3 7.09977 29.84 6.51977C30.38 5.93977 31.06 5.63977 31.86 5.63977C32.68 5.63977 33.34 5.91977 33.83 6.46977Z" fill="#FCAF17"/>
<path d="M40.61 4.22021L40.4 9.19021C40.32 11.0102 40.14 12.2602 39.86 12.9302C39.58 13.6002 39.12 13.9802 38.47 14.0502L37.9 14.0902V15.8402H38.69C39.86 15.8002 40.72 15.3602 41.26 14.5002C41.8 13.6402 42.14 12.2102 42.26 10.2102L42.5 5.86021H46.45V15.8402H48.45V4.22021H40.61Z" fill="#FCAF17"/>
<path d="M51.12 10.0698C51.12 11.8698 51.61 13.3198 52.59 14.4198C53.57 15.5198 54.84 16.0598 56.42 16.0598C57.47 16.0598 58.39 15.8098 59.2 15.3098C60.01 14.8098 60.62 14.1098 61.06 13.2098C61.49 12.3098 61.71 11.2998 61.71 10.1598V10.0198C61.71 8.19977 61.22 6.73977 60.24 5.64977C59.26 4.54977 57.98 4.00977 56.4 4.00977C55.38 4.00977 54.46 4.25977 53.67 4.74977C52.87 5.23977 52.25 5.94977 51.8 6.85977C51.35 7.76977 51.13 8.78977 51.13 9.92977V10.0698H51.12ZM54.02 6.80977C54.62 6.02977 55.41 5.63977 56.39 5.63977C57.39 5.63977 58.2 6.03977 58.8 6.82977C59.4 7.61977 59.71 8.64977 59.71 9.92977C59.71 11.3598 59.41 12.4598 58.82 13.2498C58.23 14.0398 57.42 14.4398 56.41 14.4398C55.41 14.4398 54.61 14.0498 54.01 13.2698C53.41 12.4898 53.11 11.4498 53.11 10.1698C53.12 8.70977 53.42 7.58977 54.02 6.80977Z" fill="#FCAF17"/>
<path d="M69.63 15.8502C71.06 15.8502 72.17 15.5702 72.95 15.0002C73.73 14.4302 74.13 13.6202 74.13 12.5502C74.13 11.8802 73.92 11.3102 73.49 10.8302C73.06 10.3502 72.5 10.0302 71.8 9.86021C72.43 9.63021 72.91 9.30021 73.23 8.87021C73.55 8.44022 73.71 7.95021 73.71 7.41021C73.71 6.36021 73.3 5.57021 72.47 5.03021C71.64 4.49021 70.46 4.22021 68.91 4.22021H64.38V15.8402H69.63V15.8502ZM69.58 10.7402C71.28 10.7402 72.14 11.3202 72.14 12.4802C72.14 13.0402 71.93 13.4702 71.52 13.7802C71.11 14.0902 70.49 14.2402 69.66 14.2402H66.37V10.7402H69.58ZM66.37 5.83021H69.09C70.85 5.87021 71.73 6.43021 71.73 7.52022C71.73 8.61022 70.8 9.15021 68.94 9.15021H66.37V5.83021Z" fill="#FCAF17"/>
<path d="M78.93 4.22021H76.94V15.8402H81.86C83.19 15.8402 84.25 15.4902 85.04 14.7902C85.83 14.0902 86.22 13.1602 86.22 12.0002C86.22 10.8502 85.84 9.93022 85.07 9.26022C84.3 8.59022 83.26 8.24021 81.94 8.23021H78.92V4.22021H78.93ZM90.37 4.22021H88.37V15.8402H90.37V4.22021ZM81.96 9.85021C82.68 9.86021 83.23 10.0802 83.63 10.4902C84.03 10.9002 84.23 11.4302 84.23 12.0702C84.23 12.7402 84.03 13.2602 83.62 13.6402C83.21 14.0202 82.64 14.2102 81.89 14.2102H78.94V9.85021H81.96Z" fill="#FCAF17"/>
<path d="M103.05 13.8198L101.84 12.8698C101.47 13.3398 101.05 13.7198 100.56 14.0098C100.07 14.2998 99.48 14.4398 98.78 14.4398C97.79 14.4398 96.98 14.0898 96.34 13.3798C95.7 12.6698 95.36 11.7498 95.34 10.5998H103.21V9.77977C103.21 7.92977 102.79 6.49977 101.95 5.49977C101.11 4.49977 99.94 4.00977 98.43 4.00977C97.51 4.00977 96.65 4.26977 95.86 4.77977C95.06 5.28977 94.44 5.99977 94 6.89977C93.56 7.80977 93.34 8.83977 93.34 9.98977V10.3598C93.34 12.0898 93.83 13.4798 94.82 14.5098C95.81 15.5498 97.09 16.0598 98.67 16.0598C100.61 16.0598 102.08 15.3098 103.05 13.8198ZM100.4 6.46977C100.89 7.01977 101.16 7.80977 101.22 8.81977V8.96977H95.4C95.53 7.91977 95.87 7.09977 96.41 6.51977C96.95 5.93977 97.63 5.63977 98.43 5.63977C99.25 5.63977 99.91 5.91977 100.4 6.46977Z" fill="#FCAF17"/>
<path d="M113.1 12.7102V4.22021H111.11V15.8402H113.1L118.46 7.36021V15.8402H120.45V4.22021H118.46L113.1 12.7102Z" fill="#FCAF17"/>
<path d="M138.83 10.88C138.63 12.17 138.22 13.07 137.61 13.59C137 14.11 136.12 14.37 134.97 14.37C133.7 14.37 132.7 13.87 131.99 12.86C131.28 11.85 130.93 10.51 130.93 8.81V7.3C130.93 5.5 131.3 4.11 132.05 3.14C132.8 2.17 133.83 1.68 135.15 1.68C136.22 1.68 137.06 1.96 137.66 2.52C138.26 3.08 138.65 3.99 138.83 5.24H140.9C140.74 3.6 140.15 2.32 139.15 1.39C138.15 0.46 136.82 0 135.15 0C133.9 0 132.79 0.3 131.84 0.89C130.89 1.48 130.15 2.33 129.63 3.43C129.11 4.53 128.85 5.81 128.85 7.27V8.77C128.85 10.99 129.41 12.76 130.52 14.09C131.63 15.41 133.11 16.08 134.96 16.08C136.66 16.08 138.03 15.63 139.06 14.73C140.09 13.83 140.7 12.55 140.89 10.9H138.83V10.88Z" fill="#FCAF17"/>
<path d="M152.91 4.22021H143.58V15.8402H145.58V5.87021H150.93V15.8502H152.92V4.22021H152.91Z" fill="#FCAF17"/>
<path d="M155.58 10.0698C155.58 11.8698 156.07 13.3198 157.05 14.4198C158.03 15.5198 159.3 16.0598 160.88 16.0598C161.93 16.0598 162.85 15.8098 163.66 15.3098C164.47 14.8098 165.09 14.1098 165.52 13.2098C165.95 12.3098 166.17 11.2998 166.17 10.1598V10.0198C166.17 8.19977 165.68 6.73977 164.7 5.64977C163.72 4.54977 162.44 4.00977 160.86 4.00977C159.84 4.00977 158.92 4.25977 158.13 4.74977C157.33 5.23977 156.71 5.94977 156.26 6.85977C155.81 7.76977 155.59 8.78977 155.59 9.92977V10.0698H155.58ZM158.48 6.80977C159.08 6.02977 159.87 5.63977 160.85 5.63977C161.85 5.63977 162.66 6.03977 163.26 6.82977C163.87 7.61977 164.17 8.64977 164.17 9.92977C164.17 11.3598 163.87 12.4598 163.28 13.2498C162.69 14.0398 161.88 14.4398 160.87 14.4398C159.87 14.4398 159.07 14.0498 158.47 13.2698C157.87 12.4898 157.57 11.4498 157.57 10.1698C157.58 8.70977 157.88 7.58977 158.48 6.80977Z" fill="#FCAF17"/>
<path d="M178.47 9.97977C178.47 8.09977 178.06 6.63977 177.25 5.58977C176.44 4.53977 175.33 4.00977 173.94 4.00977C172.5 4.00977 171.38 4.50977 170.57 5.50977L170.47 4.21977H168.65V20.3098H170.64V14.7098C171.45 15.6098 172.56 16.0498 173.97 16.0498C175.35 16.0498 176.45 15.5098 177.26 14.4298C178.07 13.3498 178.47 11.9198 178.47 10.1498V9.97977ZM175.64 13.2998C175.08 14.0598 174.32 14.4298 173.37 14.4298C172.15 14.4298 171.24 13.8998 170.64 12.8398V7.28977C171.24 6.21977 172.14 5.68977 173.35 5.68977C174.32 5.68977 175.09 6.06977 175.65 6.82977C176.21 7.58977 176.49 8.61977 176.49 9.92977C176.48 11.4298 176.2 12.5498 175.64 13.2998Z" fill="#FCAF17"/>
<path d="M188.77 4.22021H179.06V5.83021H182.88V15.8402H184.87V5.83021H188.77V4.22021Z" fill="#FCAF17"/>
<path d="M192.87 12.7102V4.22021H190.88V15.8402H192.87L198.23 7.36021V15.8402H200.22V4.22021H198.23L192.87 12.7102Z" fill="#FCAF17"/>
<path d="M208.84 15.8502C210.27 15.8502 211.38 15.5702 212.16 15.0002C212.94 14.4302 213.34 13.6202 213.34 12.5502C213.34 11.8802 213.13 11.3102 212.7 10.8302C212.27 10.3502 211.71 10.0302 211.01 9.86021C211.64 9.63021 212.12 9.30021 212.44 8.87021C212.76 8.44022 212.92 7.95021 212.92 7.41021C212.92 6.36021 212.51 5.57021 211.68 5.03021C210.85 4.49021 209.67 4.22021 208.12 4.22021H203.59V15.8402H208.84V15.8502ZM208.78 10.7402C210.48 10.7402 211.34 11.3202 211.34 12.4802C211.34 13.0402 211.13 13.4702 210.72 13.7802C210.31 14.0902 209.69 14.2402 208.86 14.2402H205.57V10.7402H208.78ZM205.57 5.83021H208.29C210.05 5.87021 210.93 6.43021 210.93 7.52022C210.93 8.61022 210 9.15021 208.14 9.15021H205.57V5.83021Z" fill="#FCAF17"/>
<path d="M225.47 4.22021H223.48V9.26022H218.14V4.22021H216.14V15.8402H218.14V10.8802H223.48V15.8402H225.47V4.22021Z" fill="#FCAF17"/>
<path d="M230.83 4.22021H228.84V15.8402H233.76C235.09 15.8402 236.15 15.4902 236.94 14.7902C237.73 14.0902 238.12 13.1602 238.12 12.0002C238.12 10.8502 237.74 9.93022 236.97 9.26022C236.2 8.59022 235.16 8.24021 233.84 8.23021H230.82V4.22021H230.83ZM242.27 4.22021H240.27V15.8402H242.27V4.22021ZM233.86 9.85021C234.58 9.86021 235.13 10.0802 235.53 10.4902C235.93 10.9002 236.13 11.4302 236.13 12.0702C236.13 12.7402 235.93 13.2602 235.52 13.6402C235.11 14.0202 234.54 14.2102 233.79 14.2102H230.84V9.85021H233.86Z" fill="#FCAF17"/>
<path d="M254.94 13.8198L253.73 12.8698C253.36 13.3398 252.94 13.7198 252.45 14.0098C251.96 14.2998 251.37 14.4398 250.67 14.4398C249.68 14.4398 248.87 14.0898 248.23 13.3798C247.59 12.6698 247.25 11.7498 247.23 10.5998H255.1V9.77977C255.1 7.92977 254.68 6.49977 253.84 5.49977C253 4.49977 251.83 4.00977 250.32 4.00977C249.4 4.00977 248.54 4.26977 247.75 4.77977C246.96 5.28977 246.34 5.99977 245.9 6.90977C245.46 7.81977 245.24 8.84977 245.24 9.99977V10.3698C245.24 12.0998 245.73 13.4898 246.72 14.5198C247.71 15.5598 248.99 16.0698 250.57 16.0698C252.51 16.0598 253.97 15.3098 254.94 13.8198ZM252.29 6.46977C252.78 7.01977 253.05 7.80977 253.11 8.81977V8.96977H247.29C247.42 7.91977 247.76 7.09977 248.3 6.51977C248.84 5.93977 249.52 5.63977 250.32 5.63977C251.14 5.63977 251.8 5.91977 252.29 6.46977Z" fill="#FCAF17"/>
<path d="M256.99 5.6499L259.76 9.9399L256.99 14.2199H258.52L261.69 10.0399V9.8399L258.52 5.6599H256.99V5.6499ZM260.73 5.6499L263.5 9.9399L260.73 14.2199H262.26L265.43 10.0399V9.8399L262.26 5.6599H260.73V5.6499Z" fill="#FCAF17"/>
</svg>
