<svg width="30" height="30" viewBox="0 0 30 30" fill="none" xmlns="http://www.w3.org/2000/svg">
<path d="M30 15C30 23.2838 23.2838 30 15 30C6.71625 30 0 23.2838 0 15C0 6.71625 6.71625 0 15 0C23.2838 0 30 6.71625 30 15Z" fill="url(#paint0_linear)"/>
<path d="M5.62522 14.6964L5.62521 14.6964L5.38499 16.4236L5.35252 16.5182C5.35252 16.5182 5.35253 16.5182 5.35253 16.5182C5.38452 16.5292 5.42114 16.5418 5.462 16.5559C5.86665 16.6955 6.68627 16.9782 7.52413 17.2188C8.14247 17.3964 8.63186 17.4316 9.0605 17.3572C9.48936 17.2827 9.84873 17.1 10.2082 16.8559C10.6748 16.539 14.3446 14.1028 16.9925 12.3467L16.9926 12.3467C17.1884 12.2166 17.3997 12.4829 17.2311 12.6441C15.2673 14.5172 12.7459 16.9253 12.3606 17.3024C12.0836 17.5734 11.9223 17.8193 11.8543 18.0476C11.7852 18.2793 11.8145 18.4854 11.9041 18.6676C11.992 18.8464 12.1362 18.9989 12.2923 19.1323C12.4241 19.2448 12.57 19.3483 12.7049 19.4439C12.7297 19.4616 12.7542 19.4789 12.7781 19.496C13.4649 19.9872 16.6209 22.0744 17.2444 22.4861L17.2444 22.4861C17.8965 22.9165 18.4711 23.1023 18.9387 22.8778C19.1715 22.7661 19.3635 22.5584 19.5196 22.2587C19.6755 21.9593 19.7985 21.5625 19.8916 21.0619C20.3234 18.7382 20.8319 15.4319 21.1922 13.0895C21.35 12.0633 21.4794 11.2221 21.5614 10.7296C21.6558 10.1625 21.6815 9.71372 21.6223 9.37701C21.5624 9.03635 21.4125 8.79743 21.1489 8.67788C20.8945 8.56247 20.5551 8.56887 20.1391 8.65984C19.72 8.75147 19.2058 8.93298 18.5902 9.18826L18.5901 9.18829C18.5522 9.20406 18.5046 9.2238 18.448 9.24732C17.1064 9.80446 10.6564 12.4831 5.62522 14.6964Z" fill="white" stroke="#0099D8" stroke-width="0.2"/>
<defs>
<linearGradient id="paint0_linear" x1="15.75" y1="-5.625" x2="19.875" y2="32.25" gradientUnits="userSpaceOnUse">
<stop stop-color="#37ADE9"/>
<stop offset="1" stop-color="#2A9DD5"/>
</linearGradient>
</defs>
</svg>
