<svg width="30" height="30" viewBox="0 0 30 30" fill="none" xmlns="http://www.w3.org/2000/svg">
<path d="M15 30C23.2843 30 30 23.2843 30 15C30 6.71573 23.2843 0 15 0C6.71573 0 0 6.71573 0 15C0 23.2843 6.71573 30 15 30Z" fill="#1D9BF0"/>
<path d="M12.2554 22.9119C18.9064 22.9119 22.5439 17.4016 22.5439 12.6234C22.5439 12.4666 22.5409 12.3106 22.5334 12.1561C23.2391 11.6454 23.8534 11.0086 24.3371 10.2841C23.6891 10.5721 22.9916 10.7656 22.2604 10.8534C23.0066 10.4056 23.5804 9.69763 23.8504 8.85313C23.1514 9.26713 22.3781 9.56863 21.5546 9.73063C20.8946 9.02788 19.9549 8.58838 18.9154 8.58838C16.9181 8.58838 15.2989 10.2076 15.2989 12.2041C15.2989 12.4876 15.3304 12.7636 15.3926 13.0284C12.3874 12.8776 9.72264 11.4384 7.93914 9.25063C7.62864 9.78463 7.44939 10.4056 7.44939 11.0679C7.44939 12.3226 8.08764 13.4296 9.05889 14.0776C8.46564 14.0596 7.90839 13.8961 7.42089 13.6254C7.42014 13.6404 7.42014 13.6554 7.42014 13.6711C7.42014 15.4224 8.66664 16.8849 10.3211 17.2164C10.0174 17.2989 9.69789 17.3439 9.36789 17.3439C9.13464 17.3439 8.90814 17.3206 8.68839 17.2786C9.14889 18.7149 10.4839 19.7604 12.0664 19.7904C10.8289 20.7601 9.26964 21.3384 7.57539 21.3384C7.28364 21.3384 6.99564 21.3219 6.71289 21.2881C8.31264 22.3134 10.2124 22.9119 12.2554 22.9119Z" fill="white"/>
</svg>
