<svg width="30" height="30" viewBox="0 0 30 30" fill="none" xmlns="http://www.w3.org/2000/svg">
<circle cx="15" cy="15" r="15" fill="#2787F5"/>
<path fill-rule="evenodd" clip-rule="evenodd" d="M8.12569 9.375H5.93769C5.31254 9.375 5.1875 9.66925 5.1875 9.99363C5.1875 10.5731 5.92929 13.4467 8.64138 17.2474C10.4494 19.843 12.9968 21.25 15.3149 21.25C16.7057 21.25 16.8777 20.9375 16.8777 20.3993V18.4375C16.8777 17.8125 17.0095 17.6877 17.4499 17.6877C17.7744 17.6877 18.3308 17.85 19.6289 19.1014C21.1124 20.5846 21.357 21.25 22.1914 21.25H24.3794C25.0046 21.25 25.3172 20.9375 25.1369 20.3208C24.9396 19.7062 24.2312 18.8144 23.2914 17.7573C22.7814 17.1547 22.0164 16.5059 21.7846 16.1814C21.4601 15.7642 21.5528 15.5788 21.7846 15.2081C21.7846 15.2081 24.4504 11.4537 24.7286 10.1791C24.8676 9.71556 24.7286 9.375 24.0669 9.375H21.8789C21.3226 9.375 21.0661 9.66925 20.9269 9.99363C20.9269 9.99363 19.8143 12.7051 18.2381 14.4664C17.7281 14.9762 17.4963 15.1385 17.2181 15.1385C17.079 15.1385 16.8777 14.9763 16.8777 14.5128V10.1791C16.8777 9.62288 16.7163 9.375 16.2526 9.375H12.8142C12.4666 9.375 12.2575 9.63312 12.2575 9.87781C12.2575 10.4051 13.0456 10.5267 13.1269 12.0099V15.2313C13.1269 15.9375 12.9992 16.0656 12.7211 16.0656C11.9794 16.0656 10.1751 13.3419 9.10494 10.2254C8.89525 9.61969 8.68488 9.375 8.12569 9.375Z" fill="white"/>
</svg>
