<svg width="30" height="31" viewBox="0 0 30 31" fill="none" xmlns="http://www.w3.org/2000/svg">
<path d="M0 30.1345L2.11948 22.3969C0.811916 20.1327 0.124305 17.5632 0.125092 14.9316C0.129025 6.69831 6.82891 0 15.0629 0C19.0588 0.00157348 22.8084 1.55696 25.6289 4.379C28.4485 7.20183 30.0016 10.953 30 14.9434C29.9969 23.1766 23.2954 29.8757 15.0629 29.8757C15.0622 29.8757 15.0629 29.8757 15.0629 29.8757H15.0566C12.5572 29.8749 10.1002 29.2479 7.91855 28.0575L0 30.1345Z" fill="white"/>
<path d="M23.8444 6.16095C21.4999 3.81489 18.3837 2.52227 15.0668 2.52148C8.21897 2.52148 2.64963 8.08846 2.64649 14.9315C2.6457 17.2768 3.30184 19.5599 4.54489 21.537L4.8407 22.0067L3.58585 26.5863L8.28506 25.3543L8.73901 25.6233C10.6445 26.7547 12.8301 27.3526 15.0581 27.3534H15.0628C21.9059 27.3534 27.4752 21.7856 27.4776 14.9418C27.4784 11.6256 26.1889 8.50701 23.8444 6.16095Z" fill="#40C351"/>
<path fill-rule="evenodd" clip-rule="evenodd" d="M11.3281 8.68895C11.0488 8.06743 10.7546 8.05484 10.4879 8.04383C10.2699 8.03439 10.0213 8.03517 9.77271 8.03517C9.5241 8.03517 9.11971 8.12879 8.77748 8.5025C8.43525 8.8762 7.4707 9.77859 7.4707 11.6148C7.4707 13.4511 8.80816 15.226 8.99462 15.4746C9.18108 15.7232 11.5767 19.6121 15.3704 21.1084C18.5228 22.3515 19.1648 22.1045 19.8493 22.0423C20.5337 21.9802 22.0577 21.1399 22.3684 20.2682C22.6792 19.3965 22.6792 18.6499 22.5864 18.4941C22.4927 18.3383 22.2441 18.2455 21.8712 18.0583C21.4983 17.871 19.6628 16.9686 19.3206 16.8443C18.9784 16.72 18.7297 16.6579 18.4804 17.0316C18.2317 17.4045 17.5166 18.2455 17.2987 18.4941C17.0807 18.7435 16.8628 18.775 16.4899 18.5877C16.117 18.4005 14.9148 18.0071 13.4885 16.7357C12.3792 15.7468 11.6302 14.525 11.4123 14.1513C11.1943 13.7784 11.3887 13.5762 11.5759 13.3897C11.7435 13.2222 11.9488 12.9539 12.1361 12.7359C12.3225 12.518 12.3847 12.3622 12.509 12.1136C12.6333 11.8642 12.5711 11.6463 12.4775 11.4599C12.3855 11.2726 11.6601 9.42692 11.3281 8.68895Z" fill="white"/>
</svg>
