<svg width="113" height="70" viewBox="0 0 113 70" fill="none" xmlns="http://www.w3.org/2000/svg">
<path d="M104.028 26.6211L90.4383 29.8959V34.0615C90.4383 37.6719 87.7659 41.2308 83.9059 42.1043L83.1657 42.2765C79.5552 43.1113 76.629 40.8607 76.629 37.2502V28.3252L62.9316 31.4881V40.3658C62.9316 44.0795 64.0032 47.2898 65.845 49.79L67.8073 50.3365L100.723 42.4959C100.878 42.2592 102.246 40.383 103.232 37.048C103.77 35.2191 104.032 32.7533 104.032 30.7393V26.6211H104.028Z" fill="url(#paint0_linear)"/>
<path d="M73.3254 28.2875C73.3254 24.677 76.2301 21.0751 79.8147 20.2446L80.5506 20.0725C84.1352 19.2376 87.324 21.5055 87.324 25.1159L100.643 25.4258V21.9788C100.643 11.496 92.2082 4.96363 81.7985 7.38208L78.5668 8.13515C68.1571 10.5536 59.7227 21.0149 59.7227 31.4934L60.1917 32.978L73.3254 30.1379V28.2875Z" fill="#FFDA49"/>
<path d="M73.406 28.9314C73.406 25.321 76.3322 21.7191 79.9427 20.8886L80.6828 20.7165C84.2933 19.8816 87.2152 22.1322 87.2152 25.7427V29.2327L100.917 26.0698L100.956 23.6728C100.956 21.2759 100.474 18.0355 99.6646 16.1076C96.9277 9.61828 90.0253 6.15844 81.9437 8.02176L78.6904 8.77484C68.2076 11.1933 59.7129 21.6546 59.7129 32.1331V34.0093L73.4103 30.8464V28.9314H73.406Z" fill="#FAB501"/>
<path d="M79.4607 55.5662L82.8861 54.8132C90.163 53.1349 96.5362 48.5175 99.6733 41.2578L62.8457 49.9031C66.1119 54.7228 72.4937 57.1714 79.4607 55.5662Z" fill="#FAB501"/>
<path d="M99.408 41.7746C99.4898 41.6197 99.6017 41.4088 99.6791 41.2539L62.8516 49.8992C62.9376 50.0154 63.1141 50.265 63.2044 50.3769L99.408 41.7746Z" fill="#FFDA49"/>
<path d="M87.2101 25.7483V30.9639L100.912 27.6719L100.972 22.8694C100.972 22.8694 100.886 19.1858 99.6725 16.1562H99.6682L80.6777 20.722C84.2839 19.8872 87.2101 22.1378 87.2101 25.7483Z" fill="url(#paint1_linear)"/>
<path d="M40.6025 36.9275C40.6025 36.9275 49.8459 27.1117 52.557 23.6992L33.6785 28.1359L17.9844 43.4642V49.2694L55.5693 40.5939V33.472L40.6025 36.9275Z" fill="url(#paint2_linear)"/>
<path d="M56.3954 21.3612C58.0952 18.9256 59.4938 15.6207 59.4938 11.3346C59.4938 -2.84906 47.4962 -0.0777457 43.5243 0.838855L24.8652 5.15936V17.2731L41.988 13.3055C43.2962 13.0043 47.5091 12.036 47.5091 15.1989C47.5091 16.5588 43.6706 21.486 38.0935 27.2266L55.7284 22.7856C56.1415 22.2649 55.9995 21.8948 56.3954 21.3612Z" fill="#FFDA49"/>
<path d="M21.6973 54.1355L70.1437 42.9297V35.8164L21.6973 47.0179V54.1355Z" fill="#FAB501"/>
<path d="M21.6973 47.0179V47.4138L70.1437 36.2123V35.8164L21.6973 47.0179Z" fill="#FFDA49"/>
<path d="M0 48.8753L0.00430329 50.1835L42.1206 40.5484V39.2617L0 48.8753Z" fill="#FAB501"/>
<path d="M0 48.68V49.1017L42.1206 39.4881V39.0664L0 48.68Z" fill="#FFDA49"/>
<path d="M27.4722 62.5625L24.1716 63.3328L22.7988 67.3262L26.1468 66.556L27.4722 62.5625Z" fill="url(#paint3_linear)"/>
<path d="M30.2825 65.5405L33.6089 64.7745L32.2448 61.4609L28.9355 62.2226L30.2825 65.5405Z" fill="url(#paint4_linear)"/>
<path d="M28.6769 60.3629L29.5462 62.45L32.864 61.684L30.5919 56.1758L26.7619 57.0623L24.5156 63.6076L27.8249 62.833L28.6769 60.3629Z" fill="#FAB501"/>
<path d="M26.8832 65.9062L22.5497 66.8831L21.6719 69.4565L26.0139 68.4796L26.8832 65.9062Z" fill="#FAB501"/>
<path d="M26.8831 65.9062L22.5497 66.8831L22.4766 67.094L26.81 66.1171L26.8831 65.9062Z" fill="#FFDA49"/>
<path d="M31.4739 67.2204L34.8305 66.4458L33.9526 64.2812L30.6133 65.0515L31.4739 67.2204Z" fill="#FAB501"/>
<path d="M30.6864 65.228L34.0258 64.4577L33.9526 64.2812L30.6133 65.0515L30.6864 65.228Z" fill="#FFDA49"/>
<path d="M39.0536 62.324V59.8711L35.6152 60.6715V64.3035L44.0368 62.3455V61.1793L39.0536 62.324Z" fill="url(#paint5_linear)"/>
<path d="M43.1279 57.7919L39.5174 58.6182V56.5397L44.307 55.4251V52.9766L36.2168 54.87V60.9075L43.1279 59.311V57.7919Z" fill="#FAB501"/>
<path d="M36.2168 66.1219L45.5119 63.9746V61.625L36.2168 63.7723V66.1219Z" fill="#FAB501"/>
<path d="M36.2168 63.7723V63.9961L45.5119 61.8488V61.625L36.2168 63.7723Z" fill="#FFDA49"/>
<path d="M39.5176 58.6149V58.8215L43.128 57.9995V57.793L39.5176 58.6149Z" fill="#FFDA49"/>
<path d="M47.7422 61.4786L51.6281 60.605V56.9688L47.7422 57.8466V61.4786Z" fill="url(#paint6_linear)"/>
<path d="M52.2295 53.615L55.5817 52.8404V50.3789L45.5723 52.6984V55.1383L48.9245 54.3638V57.9613L52.2295 57.2082V53.615Z" fill="#FAB501"/>
<path d="M48.4512 63.2892L52.2209 62.4285V60.0703L48.4512 60.9482V63.2892Z" fill="#FAB501"/>
<path d="M48.4512 60.9482V61.1677L52.2209 60.2941V60.0703L48.4512 60.9482Z" fill="#FFDA49"/>
<path d="M45.5723 52.6984V52.9135L55.5817 50.5984V50.3789L45.5723 52.6984Z" fill="#FFDA49"/>
<path d="M36.2168 54.87V55.0809L44.307 53.1917V52.9766L36.2168 54.87Z" fill="#FFDA49"/>
<path d="M26.6719 57.3248L30.6739 56.378L30.5922 56.1758L26.7622 57.0623L26.6719 57.3248Z" fill="#FFDA49"/>
<path d="M87.2148 26.4215V32.1534L113 26.0901V20.4141L87.2148 26.4215Z" fill="#FAB501"/>
<path d="M87.2148 26.1594V26.6715L113 20.6641V20.1133L87.2148 26.1594Z" fill="#FFDA49"/>
<path d="M43.5243 1.51854L24.8652 5.83905V17.9528L26.9997 17.4493C32.2023 16.2444 39.7159 14.5059 42.2419 13.9249C44.4452 13.4171 45.6501 13.4516 46.343 14.6737C47.0229 15.8657 46.2913 17.1524 45.3231 18.3745C45.3231 18.3745 45.3231 18.3788 45.3188 18.3788C44.7292 19.1706 35.9462 28.7498 35.9462 28.7498L55.1174 24.2614C55.1862 24.1711 55.7973 23.3922 55.8661 23.3018C58.3147 20.1131 59.4938 16.1798 59.4938 12.0143C59.4938 -2.16938 47.4962 0.601942 43.5243 1.51854Z" fill="#FAB501"/>
<path d="M70.1387 34.8259V35.8113L78.2289 33.9265V32.9453L70.1387 34.8259Z" fill="#FAB501"/>
<path d="M70.1387 34.4875V34.8834L78.2289 33.0287V32.6328L70.1387 34.4875Z" fill="#FFDA49"/>
<defs>
<linearGradient id="paint0_linear" x1="86.2413" y1="46.4994" x2="81.5513" y2="26.1852" gradientUnits="userSpaceOnUse">
<stop stop-color="#A06900"/>
<stop offset="0.0181" stop-color="#B27800"/>
<stop offset="0.0395" stop-color="#BF8400"/>
<stop offset="0.0661" stop-color="#C98C00"/>
<stop offset="0.1034" stop-color="#CF9100"/>
<stop offset="0.2071" stop-color="#D09200"/>
<stop offset="0.4769" stop-color="#D29400"/>
<stop offset="0.5888" stop-color="#CB8E00"/>
<stop offset="0.7647" stop-color="#B87D00"/>
<stop offset="0.9813" stop-color="#9A6300"/>
<stop offset="1" stop-color="#976000"/>
</linearGradient>
<linearGradient id="paint1_linear" x1="92.8532" y1="29.6586" x2="90.2376" y2="18.3294" gradientUnits="userSpaceOnUse">
<stop stop-color="#A06900"/>
<stop offset="0.00237799" stop-color="#A16A00"/>
<stop offset="0.0441" stop-color="#B37900"/>
<stop offset="0.0931" stop-color="#C18500"/>
<stop offset="0.154" stop-color="#CA8D00"/>
<stop offset="0.2395" stop-color="#D09300"/>
<stop offset="0.4769" stop-color="#D29400"/>
<stop offset="0.5888" stop-color="#CB8E00"/>
<stop offset="0.7647" stop-color="#B87D00"/>
<stop offset="0.9813" stop-color="#9A6300"/>
<stop offset="1" stop-color="#976000"/>
</linearGradient>
<linearGradient id="paint2_linear" x1="37.5567" y1="44.7506" x2="33.701" y2="28.0496" gradientUnits="userSpaceOnUse">
<stop stop-color="#A06900"/>
<stop offset="0.021" stop-color="#B27800"/>
<stop offset="0.0459" stop-color="#BF8400"/>
<stop offset="0.0768" stop-color="#C98C00"/>
<stop offset="0.1201" stop-color="#CF9100"/>
<stop offset="0.2406" stop-color="#D09200"/>
<stop offset="0.4769" stop-color="#D29400"/>
<stop offset="0.6993" stop-color="#BB7F00"/>
<stop offset="1" stop-color="#976000"/>
</linearGradient>
<linearGradient id="paint3_linear" x1="25.5396" y1="66.6957" x2="24.5364" y2="62.3503" gradientUnits="userSpaceOnUse">
<stop stop-color="#A06900"/>
<stop offset="0.4679" stop-color="#D29400"/>
<stop offset="0.727" stop-color="#B77B00"/>
<stop offset="1" stop-color="#976000"/>
</linearGradient>
<linearGradient id="paint4_linear" x1="31.6695" y1="65.2215" x2="30.8738" y2="61.7749" gradientUnits="userSpaceOnUse">
<stop offset="0.0146" stop-color="#A06900"/>
<stop offset="0.0314" stop-color="#B27800"/>
<stop offset="0.0513" stop-color="#BF8400"/>
<stop offset="0.076" stop-color="#C98C00"/>
<stop offset="0.1107" stop-color="#CF9100"/>
<stop offset="0.2071" stop-color="#D09200"/>
<stop offset="0.5559" stop-color="#D29400"/>
<stop offset="0.7721" stop-color="#B77B00"/>
<stop offset="1" stop-color="#976000"/>
</linearGradient>
<linearGradient id="paint5_linear" x1="39.9921" y1="63.4605" x2="39.1645" y2="59.8758" gradientUnits="userSpaceOnUse">
<stop offset="0.0146" stop-color="#A06900"/>
<stop offset="0.0314" stop-color="#B27800"/>
<stop offset="0.0513" stop-color="#BF8400"/>
<stop offset="0.076" stop-color="#C98C00"/>
<stop offset="0.1107" stop-color="#CF9100"/>
<stop offset="0.2071" stop-color="#D09200"/>
<stop offset="0.5559" stop-color="#D29400"/>
<stop offset="0.7721" stop-color="#B77B00"/>
<stop offset="1" stop-color="#976000"/>
</linearGradient>
<linearGradient id="paint6_linear" x1="50.2281" y1="61.5732" x2="49.168" y2="56.9815" gradientUnits="userSpaceOnUse">
<stop offset="0.0146" stop-color="#A06900"/>
<stop offset="0.027" stop-color="#B27800"/>
<stop offset="0.0417" stop-color="#BF8400"/>
<stop offset="0.0599" stop-color="#C98C00"/>
<stop offset="0.0855" stop-color="#CF9100"/>
<stop offset="0.1565" stop-color="#D09200"/>
<stop offset="0.5559" stop-color="#D29400"/>
<stop offset="0.7721" stop-color="#B77B00"/>
<stop offset="1" stop-color="#976000"/>
</linearGradient>
</defs>
</svg>
